<?xml version="1.0" standalone="no"?><!DOCTYPE svg PUBLIC "-//W3C//DTD SVG 1.1//EN" "http://www.w3.org/Graphics/SVG/1.1/DTD/svg11.dtd"><svg t="1709616044545" class="icon" viewBox="0 0 1024 1024" version="1.1" xmlns="http://www.w3.org/2000/svg" p-id="22638" xmlns:xlink="http://www.w3.org/1999/xlink" width="200" height="200"><path d="M819.2 115.2c38.4 0 70.4 25.6 70.4 64V832c0 38.4-32 70.4-70.4 70.4H204.8c-38.4 0-70.4-32-70.4-70.4V185.6c0-38.4 32-70.4 70.4-70.4h614.4m0-70.4H204.8C128 44.8 64 108.8 64 185.6v652.8c0 76.8 64 134.4 134.4 134.4h620.8c76.8 0 134.4-64 134.4-134.4V185.6C960 108.8 896 44.8 819.2 44.8z" fill="#A8ABB2" p-id="22639"></path><path d="M262.4 313.6h448c19.2 0 32-12.8 32-32s-12.8-32-32-32h-448c-19.2 0-32 12.8-32 32s12.8 32 32 32zM262.4 512h320c19.2 0 32-12.8 32-32S601.6 448 582.4 448h-320c-19.2 0-32 12.8-32 32s12.8 32 32 32zM390.4 646.4h-128c-19.2 0-32 12.8-32 32s12.8 32 32 32h128c19.2 0 32-12.8 32-32s-12.8-32-32-32zM780.8 697.6l-108.8-108.8c-6.4-12.8-25.6-12.8-38.4 0l-108.8 108.8c-12.8 12.8-12.8 32 0 44.8s32 12.8 44.8 0l57.6-57.6v153.6c0 12.8 6.4 19.2 25.6 19.2 19.2 0 32-6.4 32-19.2v-153.6l57.6 57.6c6.4 6.4 19.2 12.8 32 6.4 12.8 0 19.2-12.8 19.2-25.6s0-12.8-12.8-25.6z" fill="#A8ABB2" p-id="22640"></path></svg>